<?xml version="1.0" encoding="UTF-8"?>
<!DOCTYPE svg PUBLIC "-//W3C//DTD SVG 1.1//EN" "http://www.w3.org/Graphics/SVG/1.1/DTD/svg11.dtd">
<!-- Creator: CorelDRAW X6 -->
<svg xmlns="http://www.w3.org/2000/svg" xml:space="preserve" width="5in" height="5in" version="1.1" style="shape-rendering:geometricPrecision; text-rendering:geometricPrecision; image-rendering:optimizeQuality; fill-rule:evenodd; clip-rule:evenodd"
viewBox="0 0 5000 5000"
 xmlns:xlink="http://www.w3.org/1999/xlink">
 <defs>
  <style type="text/css">
   <![CDATA[
    .fil1 {fill:#FEFEFE}
    .fil0 {fill:url(#id0)}
   ]]>
  </style>
  <linearGradient id="id0" gradientUnits="userSpaceOnUse" x1="-0" y1="2500" x2="5000" y2="2500">
   <stop offset="0" style="stop-color:#47B344"/>
   <stop offset="1" style="stop-color:#84C22F"/>
  </linearGradient>
 </defs>
 <g id="Layer_x0020_1">
  <metadata id="CorelCorpID_0Corel-Layer"/>
  <rect class="fil0" width="5000" height="5000" rx="500" ry="500"/>
  <path class="fil1" d="M1750 3117c0,-47 -41,-84 -91,-84 -51,0 -91,38 -91,84 0,47 41,84 91,84 51,0 91,-38 91,-84zm1083 -1143l-731 0c-33,0 -60,-27 -60,-60 0,-33 27,-60 60,-60l665 0c-58,-126 -88,-264 -88,-403 0,-67 7,-134 21,-200l-1625 0 -16 2372 1523 0c15,-1 30,5 41,16 11,11 17,26 16,41l0 306c1,228 186,413 415,414l1 0c228,0 412,-185 412,-413l0 -1577c-263,-50 -492,-207 -634,-434l0 0zm-1174 1349c-117,0 -212,-92 -212,-205 0,-113 95,-205 212,-205 117,0 212,92 212,205 0,113 -95,205 -212,205zm0 -600c-117,0 -212,-92 -212,-205 0,-113 95,-205 212,-205 117,0 212,92 212,205 0,113 -95,205 -212,205zm0 -600c-117,0 -212,-92 -212,-205 0,-113 95,-205 212,-205 117,0 212,92 212,205 0,113 -95,205 -212,205zm1363 1058l-920 0c-33,0 -60,-27 -60,-60 0,-33 27,-60 60,-60l920 0c33,0 60,27 60,60 0,33 -27,60 -60,60zm60 -664c0,33 -27,60 -60,60l-920 0c-33,0 -60,-27 -60,-60 0,-33 27,-60 60,-60l920 0c33,0 60,27 60,60l0 0zm-407 1844c-101,-100 -157,-236 -157,-377l0 -242 -2018 0 0 243c1,228 186,412 414,413l1802 0c-15,-11 -29,-23 -41,-36zm974 -3758c-470,0 -850,381 -850,850 0,470 381,850 850,850 470,0 850,-381 850,-850 -1,-469 -381,-850 -850,-850zm-4 789c146,0 268,111 282,256 14,145 -85,278 -228,305l0 80c0,33 -27,60 -60,60 -33,0 -60,-27 -60,-60l0 -82c-127,-31 -216,-145 -217,-275 0,-33 27,-60 60,-60 33,0 60,27 60,60 0,90 73,163 163,163 90,0 163,-73 163,-163 0,-90 -73,-163 -163,-163 -144,0 -264,-107 -281,-250 -17,-143 75,-275 215,-309l0 -76c0,-33 27,-60 60,-60 33,0 60,27 60,60l0 73c133,26 229,143 230,278 0,33 -27,60 -60,60 -33,0 -60,-27 -60,-60 0,-89 -71,-161 -160,-163 -3,0 -6,1 -9,1 -2,0 -4,0 -6,0 -87,7 -154,81 -150,168 3,87 75,157 163,157l0 0zm-1895 525c0,-47 -41,-84 -91,-84 -51,0 -91,38 -91,84 0,47 41,84 91,84 51,0 91,-38 91,-84zm-91 515c-50,0 -91,38 -91,84 0,47 41,84 91,84 50,0 92,-38 92,-84 0,-47 -41,-84 -92,-84z"/>
 </g>
</svg>
