<?xml version="1.0" encoding="UTF-8"?>
<!DOCTYPE svg PUBLIC "-//W3C//DTD SVG 1.1//EN" "http://www.w3.org/Graphics/SVG/1.1/DTD/svg11.dtd">
<!-- Creator: CorelDRAW X6 -->
<svg xmlns="http://www.w3.org/2000/svg" xml:space="preserve" width="20.1575in" height="20.1575in" version="1.1" style="shape-rendering:geometricPrecision; text-rendering:geometricPrecision; image-rendering:optimizeQuality; fill-rule:evenodd; clip-rule:evenodd"
viewBox="0 0 20157 20157"
 xmlns:xlink="http://www.w3.org/1999/xlink">
 <defs>
  <style type="text/css">
   <![CDATA[
    .fil1 {fill:#F58634}
    .fil0 {fill:url(#id0)}
   ]]>
  </style>
  <linearGradient id="id0" gradientUnits="userSpaceOnUse" x1="10078.2" y1="630.925" x2="10078.2" y2="19545">
   <stop offset="0" style="stop-color:#3E4095"/>
   <stop offset="1" style="stop-color:#201E1E"/>
  </linearGradient>
 </defs>
 <g id="Layer_x0020_1">
  <metadata id="CorelCorpID_0Corel-Layer"/>
  <path class="fil0" d="M1017 7395c-461,16 -753,259 -902,563 -162,331 -105,949 -105,1363l0 8812c0,534 51,858 362,1107 371,297 671,244 1211,244l5875 0c388,0 1051,57 1361,-94 324,-158 566,-430 589,-906 190,-30 1710,-10 2036,-10 778,0 1230,83 1609,-437 333,-458 71,-1107 -74,-1622 -67,-238 -424,-1497 -433,-1632l1890 0c33,240 9,2198 9,2616 0,930 -143,1678 632,2007 328,139 3160,77 3894,79 471,1 773,-122 965,-386 258,-356 216,-597 216,-1096l0 -6609c0,-410 52,-849 -146,-1165 -152,-243 -452,-476 -861,-480l0 -6353c0,-715 86,-1309 -231,-1882 -205,-370 -691,-769 -1278,-824 -617,-58 -1482,-8 -2126,-8l-12720 0c-721,2 -1131,294 -1437,674 -381,473 -336,1078 -336,1778 0,1421 0,2842 0,4263zm8392 9053l2881 13 -452 -1680 -2425 2 -4 1665zm-7721 -9055c1958,0 3916,0 5875,0 656,0 1840,-165 1847,1088 5,976 0,1954 0,2931l5035 13c0,-456 -57,-907 174,-1239 206,-295 493,-440 996,-440 953,1 1906,0 2859,0 0,-1296 0,-2592 0,-3888 0,-629 68,-3474 -63,-3844 -82,-233 -262,-420 -448,-524 -283,-159 -474,-136 -827,-136l-13664 0c-734,0 -1169,-95 -1560,374 -331,397 -223,1165 -223,1743 0,1307 0,2614 0,3921zm-1007 1678l8057 0c0,-391 97,-905 -248,-990 -172,-42 -5664,-13 -6277,-13 -300,0 -993,-37 -1247,6 -388,65 -285,605 -285,997zm0 8046l8051 12 5 -7379 -8054 -4 -3 7371zm8729 -3016l5016 5c20,-58 18,-23 18,-92l0 -1921 -5035 0 1 2007zm-8729 4293c0,280 125,413 404,413l7238 0c242,0 376,-77 408,-290 26,-172 6,-516 6,-706 -433,-42 -7055,-8 -8072,-8l16 590zm8730 -595c233,22 2790,17 2895,-11 393,-107 226,-632 135,-659l-3032 1 2 669zm5705 595c0,286 136,413 420,413l3541 0c504,0 404,-427 404,-1003l-4364 0 0 590zm0 -1364l5 98 4342 0 19 -98 -2 -4937 -4390 0 26 0 0 4937zm0 -5606l4364 0c0,-864 101,-1011 -587,-1010l-3173 0c-705,-1 -603,138 -603,1010z"/>
  <path class="fil1" d="M3135 15563l460 460c104,-61 3114,-3090 3520,-3503 134,-136 416,-382 503,-523l-453 -464c-133,87 -2786,2766 -3034,3013 -169,169 -925,885 -997,1017z"/>
  <path class="fil1" d="M3809 12554l445 440c95,-47 1983,-1932 2027,-2026l-446 -442c-86,40 -1979,1926 -2026,2027z"/>
  <path class="fil1" d="M11865 5833c169,121 292,351 470,445 109,-97 1952,-1909 2002,-2029 -89,-61 -143,-144 -228,-217 -85,-73 -187,-180 -266,-225 -60,130 -824,856 -977,1009 -173,173 -326,326 -498,498 -104,104 -444,417 -503,518z"/>
  <path class="fil1" d="M8844 6483l469 477 1998 -1993c-34,-77 -384,-421 -470,-477l-1997 1993z"/>
  <path class="fil1" d="M15893 14578l450 433c184,-80 1458,-1484 1686,-1646 -40,-79 -394,-429 -475,-482 -282,248 -561,557 -831,827 -143,143 -781,741 -831,868z"/>
  <path class="fil1" d="M16562 15877c45,85 384,417 468,473l1680 -1667 -469 -461c-165,92 -1360,1378 -1679,1655z"/>
  <path class="fil1" d="M11520 3810c92,110 369,400 475,456l1335 -1314c-43,-108 -367,-426 -470,-475l-1341 1333z"/>
  <path class="fil1" d="M9851 7824l463 471 1337 -1331 -465 -466c-175,115 -518,498 -676,656 -201,201 -493,464 -659,670z"/>
  <path class="fil1" d="M1788 14560l470 453 1334 -1337c-75,-74 -142,-139 -219,-217 -97,-99 -123,-176 -242,-243l-1343 1343z"/>
  <polygon class="fil1" points="3702,2697 4376,2697 4374,2025 3701,2025 "/>
  <polygon class="fil1" points="5045,2697 5717,2697 5716,2025 5045,2025 "/>
  <polygon class="fil1" points="2359,2697 3031,2697 3031,2025 2359,2025 "/>
 </g>
</svg>
