<svg xmlns="http://www.w3.org/2000/svg" width="1935.36" height="1935.36" viewBox="0 0 20157 20157" shape-rendering="geometricPrecision" image-rendering="optimizeQuality" fill-rule="evenodd"><defs><linearGradient id="A" gradientUnits="userSpaceOnUse" x1="10097.2" y1="-147.74" x2="10097.2" y2="20400.9"><stop offset="0" stop-color="#3e4095"/><stop offset="1" stop-color="#201e1e"/></linearGradient></defs><path d="M2069 4427c-2 765-9 1293 59 2126 17 212 161 364 379 305 229-61 218-294 201-517-29-375-122-2520 0-2726 101-72 888-151 1081-198 1106-271 1859-402 2981-882 650-278 1157-509 1737-830 523-289 713-419 1181-725 593-387 182-348 1149 248 1908 1175 3338 1695 5524 2191 193 44 998 136 1088 194 69 73 56 1215 56 1444 0 3176-799 6659-2419 9235-1117 1776-2738 3214-4670 4068-224 99-264 180-512 71-1828-804-3270-1946-4452-3581-1483-2052-2188-4350-2574-6865-33-214-36-448-257-492-550-111-305 682-261 1004 134 975 545 2538 904 3454 61 156 405 958 405 1056-329 176-1821 1040-1856 1446-22 247 321 574 311 785-367 282-1769 1146-1991 1339-438 380 322 663 599 816l540 297c153 81 415 212 532 302 25 367 6 806 6 1181 0 315-114 925 291 925 147 0 653-336 779-407l2262-1334c242-141 647-276 502-625-71-170-369-691-371-841 146-80 644-308 816-332 144 67 286 261 435 396 720 658 1562 1241 2414 1678 197 101 994 494 1164 484 345-21 1783-858 2141-1084 608-383 1304-952 1796-1474 140-7 787 269 862 356-501 1287-940 820 1071 2002l1832 1081c634 401 546-416 546-748l-1-1259c122-98 1339-729 1601-887 549-331-135-676-412-861l-1506-1008c-12-200 332-545 311-785-34-402-1534-1273-1858-1445l649-1754c653-2099 949-4066 958-6354 2-498 3-1061-49-1543-44-405-445-332-1135-435-1966-292-4053-1128-5705-2167-1077-677-960-902-1486-519-3558 2597-7156 2713-7409 2824-222 98-204 331-216 581-12 260-24 523-25 786zm13627 3434c-174 88-161 187-199 436-212 1371-372 2129-939 3468-753 1779-1921 3099-3519 4064-262 158-567 304-835 424-174 78-324-35-465-99-840-382-1572-908-2232-1547-94-91-199-252-418-212-151 28-277 208-195 404 36 86 223 248 316 341 406 406 921 776 1426 1092 251 157 565 321 819 440 159 74 276 121 438 192 225 99 285 41 479-47 653-295 1026-490 1620-899 1455-1002 2670-2675 3270-4314 351-960 646-1954 791-2985 22-154 78-422 58-573-26-188-233-279-414-187zM4492 6107l22-1016c138-46 655-113 840-141 237-36 544-112 792-183 1252-357 2253-786 3375-1476 716-440 361-502 1135 7 639 421 1220 676 1928 986 728 319 1797 605 2619 739 142 23 316 32 432 65 170 581-230 2049 245 2112 238 31 337-119 348-331 36-727 47-1250-9-1995-32-431-355-350-937-436-1643-245-3475-1020-4822-1990-454-327-438-233-883 90-532 387-1147 706-1744 983-1072 496-1967 748-3151 944-595 98-712-47-759 625-112 1599 114 3577 478 4963 384 1463 960 2755 1679 3778 338 480 759 89 533-269-93-147-186-260-277-406-1249-2006-1853-4640-1843-7048zm-2014 8423c20 102 1224 2406 1329 2553 89-18 342-220 418-272 338-232 1050-615 1408-719-33-135-357-488-457-623-602-816-719-1037-1212-1924-256 26-1230 750-1486 985zm12057 1548c122 75 343 152 473 213 381 179 766 394 1110 648 102 75 127 124 230 145 130-165 239-429 336-617l333-635c113-213 638-1163 654-1302-140-175-1227-949-1476-989-329 694-749 1312-1217 1929-73 97-430 525-444 608zm1117 1968l2104 1223c19-303 4-653 4-961 0-366-81-627 209-790l1209-657c72-51 25 0 70-74l-89-85c-258-189-1338-911-1456-926l-734 1424c-81 156-268 593-416 658-219 96-748 73-901 188zM908 16787c135 201 1392 668 1472 930 43 140 12 1267 20 1550 63-6 1982-1128 2090-1221l-195-62-227-37c-604-98-497-14-880-747l-647-1245c-34-65-64-135-125-180-27 9-1304 816-1467 967-32 30-17 14-41 46z" fill="url(#A)"/><path d="M9290 9707c-89-47-343-323-433-413l-433-433c-887-879-1987-86-1830 831 73 424 456 728 734 998 302 293 556 559 852 854 265 265 551 643 1029 673 558 35 844-331 1109-596l2571-2571c275-275 642-569 751-953 267-939-897-1800-1769-956L9288 9706z" fill="#f58634"/></svg>