<?xml version="1.0" encoding="UTF-8"?>
<!DOCTYPE svg PUBLIC "-//W3C//DTD SVG 1.1//EN" "http://www.w3.org/Graphics/SVG/1.1/DTD/svg11.dtd">
<!-- Creator: CorelDRAW X6 -->
<svg xmlns="http://www.w3.org/2000/svg" xml:space="preserve" width="20.1575in" height="20.1575in" version="1.1" style="shape-rendering:geometricPrecision; text-rendering:geometricPrecision; image-rendering:optimizeQuality; fill-rule:evenodd; clip-rule:evenodd"
viewBox="0 0 20157 20157"
 xmlns:xlink="http://www.w3.org/1999/xlink">
 <defs>
  <style type="text/css">
   <![CDATA[
    .fil1 {fill:#F58634}
    .fil0 {fill:url(#id0)}
   ]]>
  </style>
  <linearGradient id="id0" gradientUnits="userSpaceOnUse" x1="10095.3" y1="9834.49" x2="10095.3" y2="17277">
   <stop offset="0" style="stop-color:#3E4095"/>
   <stop offset="1" style="stop-color:#201E1E"/>
  </linearGradient>
 </defs>
 <g id="Layer_x0020_1">
  <metadata id="CorelCorpID_0Corel-Layer"/>
  <g id="_164880376">
   <path class="fil0" d="M4251 9964c-334,42 -528,169 -697,370 -304,360 -222,1309 -219,1879 2,393 86,582 290,795 413,428 1071,312 1775,312 2814,0 5628,0 8442,0 582,0 1579,59 2112,-11 318,-42 518,-224 654,-385 205,-243 215,-468 214,-837 -1,-673 118,-1416 -293,-1834 -409,-417 -1090,-300 -1771,-300 -1094,0 -10080,-42 -10509,13zm0 3842c-334,42 -528,169 -697,370 -304,360 -222,1309 -219,1879 2,393 86,582 290,795 413,428 1071,312 1775,312 2814,0 5628,0 8442,0 582,0 1579,59 2112,-11 318,-42 518,-224 654,-385 205,-243 215,-468 214,-837 -1,-673 118,-1416 -293,-1834 -409,-417 -1090,-300 -1771,-300 -1094,0 -10080,-42 -10509,13zm-15 692c-285,122 -227,311 -226,671 1,1499 -173,1320 1328,1320 1467,0 10427,39 10589,-27 264,-107 223,-352 222,-661 -2,-1510 190,-1336 -1326,-1336 -1478,0 -10408,-44 -10587,33zm543 666c-338,127 -246,491 -90,590 168,107 670,63 901,63 857,0 5649,35 5812,-22 252,-89 291,-447 96,-591 -169,-125 -2570,-67 -2873,-67 -479,0 -3670,-40 -3846,26zm7459 -1c-359,121 -304,571 26,641 137,29 973,28 1087,-18 299,-119 271,-568 -57,-637 -154,-32 -933,-28 -1057,14zm2347 -283c-824,280 -440,1494 396,1237 293,-90 548,-423 420,-833 -88,-282 -429,-536 -817,-404zm-10350 -4224c-285,122 -227,311 -226,671 1,1499 -173,1320 1328,1320 1467,0 10427,39 10589,-27 264,-107 223,-352 222,-661 -2,-1510 190,-1336 -1326,-1336 -1478,0 -10408,-44 -10587,33zm543 666c-338,127 -246,491 -90,590 168,107 670,63 901,63 857,0 5649,35 5812,-22 252,-89 291,-447 96,-591 -169,-125 -2570,-67 -2873,-67 -479,0 -3670,-40 -3846,26zm7459 -1c-359,121 -304,571 26,641 137,29 973,28 1087,-18 299,-119 271,-568 -57,-637 -154,-32 -933,-28 -1057,14zm2347 -283c-824,280 -440,1494 396,1237 293,-90 548,-423 420,-833 -88,-282 -429,-536 -817,-404z"/>
   <path class="fil1" d="M7993 5937c-505,-216 -786,-412 -1485,-418 -1521,-14 -2829,1084 -2943,2835 -273,-103 -410,-212 -765,-272 -1535,-260 -2802,882 -2800,2329 2,1151 788,2059 1896,2302 1002,219 861,-442 640,-576 -176,-106 -1152,40 -1653,-972 -915,-1846 1614,-3378 2834,-1789 88,115 115,202 255,252 162,58 318,-10 385,-101 279,-384 -640,-1127 359,-2486 593,-806 1932,-1160 3001,-464 172,112 438,401 688,168 191,-178 385,-1897 2462,-2787 1678,-719 3573,-77 4604,1125 597,697 1116,1918 903,3182 -48,285 -199,634 66,783 246,139 524,-130 754,-218 606,-233 1271,-69 1664,266 1149,978 662,2884 -1032,2993 -430,28 -430,444 -245,593 368,297 2050,-149 2475,-1590 335,-1136 -187,-2270 -1192,-2794 -626,-326 -1069,-283 -1785,-152 90,-1366 -305,-2519 -957,-3334 -1505,-1882 -4005,-2393 -6120,-1182 -1494,855 -1909,2205 -2009,2308z"/>
  </g>
 </g>
</svg>
