<?xml version="1.0" encoding="UTF-8"?>
<!DOCTYPE svg PUBLIC "-//W3C//DTD SVG 1.1//EN" "http://www.w3.org/Graphics/SVG/1.1/DTD/svg11.dtd">
<!-- Creator: CorelDRAW X6 -->
<svg xmlns="http://www.w3.org/2000/svg" xml:space="preserve" width="20.1575in" height="20.1575in" version="1.1" style="shape-rendering:geometricPrecision; text-rendering:geometricPrecision; image-rendering:optimizeQuality; fill-rule:evenodd; clip-rule:evenodd"
viewBox="0 0 20157 20157"
 xmlns:xlink="http://www.w3.org/1999/xlink">
 <defs>
  <style type="text/css">
   <![CDATA[
    .fil0 {fill:#F58634}
    .fil3 {fill:black}
    .fil1 {fill:url(#id0)}
    .fil2 {fill:url(#id1)}
   ]]>
  </style>
  <linearGradient id="id0" gradientUnits="userSpaceOnUse" x1="11834.3" y1="7783.44" x2="11834.3" y2="17919.8">
   <stop offset="0" style="stop-color:#3E4095"/>
   <stop offset="1" style="stop-color:#201E1E"/>
  </linearGradient>
  <linearGradient id="id1" gradientUnits="userSpaceOnUse" xlink:href="#id0" x1="8430.25" y1="2430.15" x2="8430.25" y2="12376.1">
  </linearGradient>
 </defs>
 <g id="Layer_x0020_1">
  <metadata id="CorelCorpID_0Corel-Layer"/>
  <g id="_164752088">
   <path class="fil0" d="M10079 0c5566,0 10079,4512 10079,10079 0,5566 -4512,10079 -10079,10079 -5566,0 -10079,-4512 -10079,-10079 0,-5566 4512,-10079 10079,-10079zm0 820c5113,0 9258,4145 9258,9258 0,5113 -4145,9258 -9258,9258 -5113,0 -9258,-4145 -9258,-9258 0,-5113 4145,-9258 9258,-9258z"/>
   <g>
    <path class="fil1" d="M15162 10473c10,1237 -780,2557 -1596,3343 -1636,1576 -4359,1869 -6333,517 -239,-164 -472,-381 -819,-437 -713,-116 -1334,426 -1363,1090 -32,727 548,1101 1059,1408 1064,639 2259,1114 3751,1144 1999,41 3925,-708 5300,-2002 1505,-1416 2152,-2989 2366,-5044 412,-101 1089,160 1112,-383 11,-267 -402,-589 -669,-857 -214,-215 -1349,-1427 -1578,-1447 -247,-21 -363,159 -473,269l-1141 1141c-140,142 -673,599 -701,807 -78,575 636,454 1086,452zm276 -787c474,29 554,162 531,642 -50,1047 -336,1923 -847,2792 -572,973 -1449,1782 -2571,2309 -1778,835 -4078,718 -5750,-447 -215,-150 -541,-476 -831,-230 -106,89 -171,257 -113,424 53,154 157,205 309,313 3409,2430 7985,1175 9792,-2248 295,-560 510,-1125 654,-1787 271,-1247 -88,-1579 514,-1758l122 -55 -879 -890c-152,73 -925,906 -931,935z"/>
    <path class="fil2" d="M4719 10474c-18,77 -836,877 -921,928l-906 -884c0,1 13,-15 17,-8l102 -41c56,-15 73,-5 145,-33 82,-32 153,-94 195,-182 88,-183 38,-461 72,-676 75,-472 105,-799 214,-1249 239,-984 898,-1841 838,-2114 -40,-182 -203,-312 -426,-292 -360,32 -759,1066 -877,1344 -274,646 -520,1622 -545,2420 -444,-1 -1109,-123 -1108,391 0,241 440,606 666,832 226,225 1347,1430 1583,1446 287,19 593,-381 852,-643 231,-232 1431,-1344 1463,-1577 78,-571 -658,-448 -1090,-448 74,-1948 1511,-3714 3247,-4380 963,-370 2227,-467 3279,-135 1644,519 1792,1271 2657,1089 775,-164 1166,-1044 779,-1715 -395,-686 -2146,-1485 -3066,-1707 -1707,-411 -3229,-243 -4822,418 -281,117 -1078,495 -1180,720 -129,283 80,552 348,552 197,-1 473,-220 641,-311 391,-213 874,-421 1350,-554 1114,-312 2258,-341 3399,-79 809,186 1972,707 2558,1232 202,181 149,537 -67,641 -283,135 -504,-95 -689,-229 -371,-268 -792,-479 -1251,-660 -2196,-867 -4444,-187 -5871,985 -352,289 -628,597 -914,961 -725,922 -1238,2328 -1209,3533 8,324 199,408 536,424z"/>
    <path class="fil3" d="M4872 4802c-543,247 -179,926 279,723 469,-208 197,-939 -279,-723z"/>
   </g>
  </g>
 </g>
</svg>
