<?xml version="1.0" encoding="utf-8"?>
<!-- Generator: Adobe Illustrator 16.0.0, SVG Export Plug-In . SVG Version: 6.00 Build 0)  -->
<!DOCTYPE svg PUBLIC "-//W3C//DTD SVG 1.1//EN" "http://www.w3.org/Graphics/SVG/1.1/DTD/svg11.dtd">
<svg version="1.1" id="Layer_1" xmlns="http://www.w3.org/2000/svg" xmlns:xlink="http://www.w3.org/1999/xlink" x="0px" y="0px"
	 width="300px" height="63.372px" viewBox="0 0 300 63.372" enable-background="new 0 0 300 63.372" xml:space="preserve">
<g>
	<path fill-rule="evenodd" clip-rule="evenodd" fill="#1A2953" d="M65.701,52.387c-0.251-2.141-0.495-4.253-0.739-6.364
		c-0.264-2.247-0.528-4.499-0.797-6.746c-0.163-1.353-0.939-2.16-2.25-2.439c-0.625-0.135-1.274-0.218-1.909-0.226
		c-1.703-0.033-3.402,0-5.103-0.025c-0.404-0.005-0.569,0.116-0.675,0.515c-1.3,4.926-2.625,9.838-3.953,14.758
		c-0.043,0.17-0.099,0.338-0.149,0.538c-2.806,0-5.613,0-8.469,0c0.441-1.645,0.866-3.265,1.3-4.882
		c2.996-11.173,6.001-22.348,8.972-33.526c0.175-0.647,0.417-0.838,1.092-0.833c5.585,0.033,11.178,0.008,16.771,0.021
		c2.097,0.007,4.179,0.206,6.169,0.914c3.64,1.287,5.473,4.26,4.976,8.093c-0.858,6.55-4.463,10.863-10.667,13.046
		c-0.158,0.054-0.31,0.127-0.582,0.239c2.638,0.744,3.389,2.703,3.668,5.009c0.472,3.896,0.944,7.789,1.417,11.688
		c0.005,0.059,0,0.116,0,0.221C71.766,52.387,68.771,52.387,65.701,52.387z M55.991,30.127c3.493-0.079,6.905,0.028,10.277-0.269
		c3.681-0.32,5.676-2.338,6.271-5.745c0.284-1.645-0.213-2.896-1.518-3.526c-0.645-0.31-1.361-0.594-2.057-0.619
		c-3.295-0.109-6.595-0.127-9.896-0.16c-0.127,0-0.333,0.186-0.371,0.323C57.798,23.397,56.922,26.674,55.991,30.127z"/>
	<path fill-rule="evenodd" clip-rule="evenodd" fill="#1A2953" d="M211.751,24.552c-0.454,1.475-0.898,2.902-1.346,4.333
		c0.021,0.015,0.046,0.028,0.074,0.046c0.104-0.117,0.2-0.236,0.302-0.358c3.534-4.011,7.926-5.625,13.155-4.382
		c3.463,0.828,5.281,3.349,5.931,6.756c0.609,3.234-0.005,6.339-1.076,9.378c-1.462,4.141-3.828,7.639-7.556,10.086
		c-2.939,1.935-6.182,2.803-9.692,2.346c-2.696-0.345-4.859-1.548-5.928-4.358c-0.1,0.294-0.176,0.487-0.231,0.688
		c-1.3,4.859-2.614,9.721-3.895,14.588c-0.137,0.528-0.33,0.713-0.894,0.703c-2.287-0.038-4.574-0.016-6.862-0.016
		c-0.21,0-0.429,0-0.723,0c0.056-0.269,0.091-0.472,0.146-0.67c3.453-12.889,6.9-25.778,10.354-38.672
		c0.081-0.279,0.116-0.541,0.538-0.536c2.485,0.018,4.971,0.008,7.448,0.01C211.553,24.494,211.609,24.521,211.751,24.552z
		 M221.551,35.104c0-0.216,0.01-0.435-0.005-0.646c-0.138-2.254-1.366-3.833-3.331-4.176c-2.32-0.412-4.474,0.058-6.238,1.635
		c-3.165,2.823-4.318,6.532-4.227,10.635c0.048,2.203,1.414,3.587,3.463,3.892c2.615,0.384,4.94-0.267,6.799-2.206
		C220.443,41.693,221.281,38.497,221.551,35.104z"/>
	<path fill-rule="evenodd" clip-rule="evenodd" fill="#1A2953" d="M251.822,48.495c-0.817,0.683-1.546,1.396-2.376,1.967
		c-3.169,2.171-6.659,2.945-10.422,2.085c-3.552-0.813-5.526-3.187-6.202-6.695c-0.614-3.171,0.025-6.222,1.076-9.195
		c1.516-4.292,4.007-7.895,7.855-10.434c2.955-1.955,6.199-2.838,9.743-2.288c2.636,0.414,4.598,1.762,5.687,4.425
		c0.107-0.307,0.181-0.508,0.239-0.713c0.248-0.904,0.495-1.805,0.721-2.711c0.066-0.279,0.157-0.449,0.492-0.449
		c2.519,0.01,5.04,0.007,7.561,0.01c0.076,0,0.147,0.038,0.259,0.061c-0.686,2.557-1.371,5.101-2.051,7.642
		c-1.742,6.501-3.491,13-5.21,19.505c-0.157,0.576-0.37,0.756-0.979,0.743c-2.247-0.043-4.494-0.018-6.738-0.018
		c-0.213,0-0.426,0-0.695,0C251.132,51.095,251.477,49.805,251.822,48.495z M255.09,35.242c-0.028-0.434-0.044-0.962-0.112-1.482
		c-0.236-1.833-1.373-3.11-3.165-3.458c-2.085-0.411-4.098-0.109-5.794,1.201c-3.701,2.866-5.031,6.837-4.852,11.355
		c0.079,1.917,1.33,3.156,3.225,3.52c2.987,0.565,5.537-0.29,7.507-2.625C253.935,41.33,254.727,38.413,255.09,35.242z"/>
	<path fill-rule="evenodd" clip-rule="evenodd" fill="#1A2953" d="M103.835,28.365c0.325-1.239,0.619-2.331,0.909-3.425
		c0.071-0.256,0.129-0.457,0.482-0.454c2.521,0.013,5.042,0.007,7.565,0.01c0.071,0.003,0.142,0.038,0.264,0.069
		c-2.486,9.284-4.971,18.547-7.464,27.834c-2.711,0-5.402,0-8.19,0c0.335-1.287,0.67-2.554,1-3.818
		c-0.061-0.054-0.122-0.109-0.18-0.162c-0.112,0.167-0.19,0.362-0.333,0.497c-3.453,3.334-7.545,4.634-12.247,3.623
		c-3.491-0.746-5.684-3.27-6.25-6.853c-0.528-3.303,0.127-6.453,1.287-9.52c1.663-4.379,4.318-7.995,8.416-10.404
		c3.006-1.762,6.24-2.46,9.685-1.688c2.242,0.5,3.927,1.775,4.852,3.933C103.668,28.091,103.719,28.165,103.835,28.365z
		 M87.694,41.777c0,0.219-0.01,0.435,0.005,0.647c0.127,2.165,1.335,3.623,3.44,3.988c2.277,0.396,4.445,0.008,6.207-1.551
		c3.209-2.834,4.369-6.589,4.255-10.729c-0.061-2.216-1.335-3.516-3.27-3.854c-2.369-0.414-4.524,0.107-6.342,1.699
		C89.03,34.563,88.029,38.033,87.694,41.777z"/>
	<path fill-rule="evenodd" clip-rule="evenodd" fill="#1A2953" d="M160.397,23.778c2.663,0.005,4.464,0.198,6.189,0.835
		c3.737,1.376,5.735,4.112,5.997,8.025c0.472,7.065-3.976,17.606-15.161,19.842c-3.428,0.683-6.86,0.66-10.13-0.767
		c-3.275-1.432-5.021-4.044-5.255-7.565c-0.584-8.903,5.199-17.119,13.755-19.642C157.569,23.986,159.388,23.773,160.397,23.778z
		 M164.287,34.928c-0.03-0.419-0.051-0.746-0.081-1.079c-0.178-1.959-1.305-3.272-3.255-3.604c-2.62-0.452-5.021,0.117-6.88,2.084
		c-2.734,2.895-3.772,6.479-3.686,10.373c0.051,2.079,1.208,3.315,3.214,3.684c2.93,0.536,5.488-0.223,7.433-2.544
		C163.193,41.252,163.973,38.127,164.287,34.928z"/>
	<path fill-rule="evenodd" clip-rule="evenodd" fill="#1A2953" d="M264.186,64.329c1.178-1.638,2.287-3.171,3.392-4.71
		c2.006-2.772,4.004-5.542,6.017-8.307c0.241-0.327,0.305-0.635,0.239-1.03c-1.011-5.946-2.006-11.895-3.006-17.842
		c-0.411-2.465-0.822-4.93-1.234-7.398c-0.022-0.15-0.045-0.302-0.07-0.502c2.894,0,5.758,0,8.688,0
		c0.729,5.705,1.457,11.412,2.2,17.289c0.216-0.279,0.338-0.435,0.45-0.597c3.879-5.395,7.763-10.784,11.624-16.189
		c0.282-0.396,0.562-0.556,1.046-0.553c2.232,0.023,4.456,0.005,6.69,0c0.208,0,0.418,0,0.726,0
		c-0.152,0.249-0.249,0.411-0.351,0.561c-9.145,12.945-18.289,25.887-27.421,38.832c-0.235,0.338-0.477,0.492-0.9,0.487
		c-2.483-0.018-4.966-0.008-7.449-0.01C264.652,64.359,264.485,64.342,264.186,64.329z"/>
	<path fill-rule="evenodd" clip-rule="evenodd" fill="#1A2953" d="M122.673,46.23c4.864,0,9.728,0,14.673,0
		c-0.091,0.378-0.172,0.711-0.261,1.038c-0.424,1.587-0.855,3.166-1.267,4.753c-0.073,0.294-0.183,0.416-0.502,0.413
		c-8.012-0.01-16.029-0.008-24.042-0.01c-0.053,0-0.112-0.018-0.213-0.038c0.502-1.871,1-3.732,1.521-5.593
		c0.048-0.183,0.226-0.351,0.378-0.485c5.753-4.973,11.511-9.943,17.263-14.91c0.213-0.185,0.421-0.375,0.757-0.673
		c-4.702,0-9.241,0-13.821,0c0.025-0.2,0.025-0.337,0.061-0.464c0.472-1.767,0.962-3.539,1.417-5.311
		c0.091-0.358,0.246-0.464,0.599-0.464c7.646,0.005,15.283,0.002,22.927,0.005c0.135,0,0.264,0.03,0.465,0.053
		c-0.294,1.099-0.665,2.153-0.84,3.239c-0.271,1.676-1.16,2.836-2.445,3.92c-5.509,4.651-10.947,9.393-16.405,14.103
		c-0.111,0.099-0.229,0.19-0.34,0.292C122.619,46.139,122.647,46.188,122.673,46.23z"/>
	<path fill-rule="evenodd" clip-rule="evenodd" fill="#1A2953" d="M28.273,22.739c-2.655,9.952-5.291,19.81-7.921,29.673
		c-6.468,0-12.896,0-19.406,0c0.147-0.579,0.29-1.13,0.434-1.681c1.104-4.131,2.204-8.261,3.328-12.384
		c0.082-0.3,0.32-0.63,0.579-0.8c7.477-4.844,14.963-9.672,22.452-14.504C27.877,22.95,28.029,22.876,28.273,22.739z"/>
	<path fill-rule="evenodd" clip-rule="evenodd" fill="#1A2953" d="M188.893,24.489c-0.346,1.333-0.67,2.587-1.028,3.953
		c3.272-3.699,7.121-5.39,12.087-4.191c-0.724,2.643-1.411,5.154-2.117,7.713c-1.939-0.988-3.925-1.143-5.94-0.711
		c-3.374,0.721-5.434,2.912-6.353,6.136c-1.36,4.763-2.604,9.561-3.874,14.354c-0.132,0.508-0.299,0.716-0.878,0.705
		c-2.328-0.04-4.651-0.018-6.977-0.018c-0.198,0-0.386,0-0.655,0c0.358-1.335,0.696-2.612,1.039-3.887
		c2.109-7.796,4.219-15.593,6.309-23.394c0.137-0.493,0.33-0.681,0.868-0.67c2.284,0.033,4.574,0.01,6.859,0.01
		C188.42,24.489,188.618,24.489,188.893,24.489z"/>
	<polygon fill-rule="evenodd" clip-rule="evenodd" fill="#518CCA" points="20.058,17.672 45.777,1.005 31.975,52.396 22.53,52.396 
		31.833,17.622 17.656,26.784 	"/>
</g>
</svg>
