<?xml version="1.0" encoding="utf-8"?>
<!-- Generator: Adobe Illustrator 16.0.0, SVG Export Plug-In . SVG Version: 6.00 Build 0)  -->
<!DOCTYPE svg PUBLIC "-//W3C//DTD SVG 1.1//EN" "http://www.w3.org/Graphics/SVG/1.1/DTD/svg11.dtd">
<svg version="1.1" id="Layer_1" xmlns="http://www.w3.org/2000/svg" xmlns:xlink="http://www.w3.org/1999/xlink" x="0px" y="0px"
	 width="1200px" height="253.182px" viewBox="0 0 1200 253.182" enable-background="new 0 0 1200 253.182" xml:space="preserve">
<g>
	<path fill-rule="evenodd" clip-rule="evenodd" fill="#E92B75" d="M0,0v253.182l112.045-11.32c9.418-1.057,18.512-1.45,27.931-2.764
		c9.247-1.295,18.563-2.027,27.878-2.812c8.958-0.734,18.837-2.03,27.794-2.898l42.126-4.194c3.754-0.29,3.071-0.597,3.002-4.842
		c-0.563-31.967-0.051-68.248-0.051-100.472c0-41.293,0-82.586,0-123.88H0z"/>
	<path fill-rule="evenodd" clip-rule="evenodd" fill="#FFFEFE" d="M172.018,81.188c-0.956,0.938-1.16,1.483-2.252,2.438
		c-4.896,4.211-2.44,0.801-8.122,8.115c-2.627,3.393-5.459,12.479-7.217,14.406c-7.968-3.547-12.028-3.273-21.276-2.915l0.324-9.343
		l12.728-0.222l5.528-15.498l-32.435-0.137l-0.12,43.782c7.951-2.216,12.694-5.983,22.112-4.364
		c7.644,1.313,13.189,7.45,10.681,16.368c-1.86,6.632-8.292,11.389-16.567,11.081c-9.35-0.341-12.898-5.983-19.433-8.49
		l-5.511,12.804c4.624,3.104,6.996,5.883,14.179,8.253c6.245,2.063,13.189,2.675,19.809,1.244
		c6.415-1.381,11.226-4.059,14.707-7.519c0.085-0.068,0.205-0.206,0.29-0.289c6.211-6.02,6.604-10.726,8.463-12.993
		c8.667,4.774,14.503,8.149,27.419,5.491c4.743-0.99,8.94-2.779,12.147-5.269c11.107-8.627,16.482-22.608,12.421-36.759
		c-2.833-9.854-5.886-11.116-10.493-15.328c-2.269-2.063-2.712-2.676-5.084-3.938c0.973-4.348,12.166-12.719,5.938-27.62
		c-11.38-27.296-51.441-14.116-44.924,14.867C166.951,76.518,169.971,76.534,172.018,81.188L172.018,81.188z"/>
	<path fill-rule="evenodd" clip-rule="evenodd" fill="#FFFEFE" d="M73.708,120.623l18.631,0.717
		c0.341,2.063-14.059,30.638-16.141,35.412c6.211,1.107,18.171-1.364,25.9,10.689c8.002,12.497,1.246,29.716-15.014,30.859
		c-11.602,0.818-15.066-3.376-22.078-7.809c-2.287,3.647-4.966,9.531-5.973,14.15c15.902,12.769,41.325,12.497,55.929-6.751
		c8.514-11.235,7.814-29.563-1.587-41.176c-0.87-1.074-1.911-1.755-2.764-2.624c-1.229-1.263-0.922-1.244-2.457-2.337l-9.812-5.898
		c1.451-5.489,16.226-33.008,18.291-39.555l-37.809-0.153L73.708,120.623z"/>
	<path fill-rule="evenodd" clip-rule="evenodd" fill="#FFFEFE" d="M33.1,125.158l8.6-7.706c-2.133-4.416-7.866-4.519-9.35-12.224
		c-4.249-22.164,37.451-20.902,26.531,3.494c-3.839,8.56-13.07,17.288-18.171,23.955l-7.098,8.541
		c-2.867,3.717-10.749,11.935-12.25,15.276l47.364-0.018c1.996-2.573,5.545-7.705,6.16-12.377l-27.128-0.274
		c2.525-5.966,17.369-20.696,21.771-29.817c16.055-33.247-32.741-49.357-46.698-23.256C14.315,106.66,23.63,119.361,33.1,125.158
		L33.1,125.158z"/>
	<path fill-rule="evenodd" clip-rule="evenodd" fill="#E92B75" d="M185.872,87.412c-31.53,3.324-25.695,51.489,5.425,47.19
		c12.951-1.771,21.84-11.269,20.235-26.084C210.151,95.595,200.152,85.911,185.872,87.412L185.872,87.412z"/>
	<path fill-rule="evenodd" clip-rule="evenodd" fill="#E92B75" d="M185.156,48.88c-18.444,3.683-12.831,33.28,6.535,28.388
		C209.588,72.732,203.735,45.146,185.156,48.88L185.156,48.88z"/>
</g>
<g>
	<path d="M322.702,89.995h-26.561v72.24h-17.867v-72.24h-26.204V75.523h70.631V89.995z"/>
	<path d="M403.458,162.234h-17.866v-37.162h-34.839v37.162h-17.866V75.523h17.866v35.137h34.839V75.523h17.866V162.234z"/>
	<path d="M471.231,124.655h-34.303v23.227h40.259v14.353h-58.125V75.523h58.006v14.472h-40.14v20.666h34.303V124.655z"/>
	<path d="M575.63,162.234h-59.436v-11.792l28.05-29.896c3.851-4.208,6.7-7.881,8.546-11.018c1.846-3.136,2.769-6.114,2.769-8.934
		c0-3.85-0.973-6.878-2.918-9.082c-1.946-2.203-4.725-3.305-8.337-3.305c-3.892,0-6.959,1.34-9.201,4.02
		c-2.244,2.68-3.365,6.204-3.365,10.571h-17.271c0-5.28,1.26-10.104,3.782-14.472c2.521-4.367,6.083-7.792,10.69-10.273
		c4.605-2.481,9.827-3.722,15.663-3.722c8.934,0,15.872,2.144,20.814,6.432c4.943,4.288,7.415,10.343,7.415,18.164
		c0,4.288-1.112,8.656-3.335,13.102c-2.224,4.447-6.036,9.628-11.435,15.544l-19.712,20.785h37.281V162.234z"/>
	<path d="M603.681,111.256h9.171c4.367,0,7.603-1.092,9.708-3.276c2.104-2.183,3.156-5.082,3.156-8.695
		c0-3.493-1.043-6.213-3.127-8.159c-2.084-1.945-4.953-2.918-8.605-2.918c-3.296,0-6.055,0.904-8.278,2.71
		c-2.224,1.807-3.335,4.159-3.335,7.057h-17.211c0-4.526,1.221-8.585,3.663-12.179c2.442-3.593,5.856-6.402,10.244-8.427
		c4.386-2.025,9.22-3.037,14.501-3.037c9.171,0,16.357,2.194,21.559,6.581c5.201,4.388,7.802,10.432,7.802,18.134
		c0,3.971-1.212,7.623-3.633,10.958c-2.422,3.335-5.599,5.896-9.528,7.683c4.883,1.748,8.525,4.368,10.928,7.861
		c2.401,3.494,3.604,7.623,3.604,12.388c0,7.702-2.81,13.876-8.428,18.521c-5.618,4.645-13.053,6.968-22.303,6.968
		c-8.656,0-15.732-2.283-21.231-6.849s-8.248-10.602-8.248-18.105h17.211c0,3.257,1.221,5.917,3.663,7.98
		c2.441,2.065,5.449,3.097,9.022,3.097c4.089,0,7.295-1.081,9.618-3.245c2.322-2.164,3.483-5.032,3.483-8.605
		c0-8.655-4.764-12.983-14.293-12.983h-9.111V111.256z"/>
	<path d="M658.709,119.593l5.002-44.07h48.597v14.353h-34.481l-2.145,18.641c4.089-2.183,8.437-3.275,13.043-3.275
		c8.257,0,14.729,2.561,19.414,7.683s7.027,12.289,7.027,21.5c0,5.598-1.182,10.61-3.543,15.037
		c-2.363,4.428-5.747,7.861-10.154,10.303c-4.407,2.442-9.608,3.663-15.604,3.663c-5.24,0-10.104-1.063-14.591-3.187
		s-8.03-5.111-10.63-8.963c-2.602-3.851-3.981-8.238-4.14-13.161h17.033c0.357,3.613,1.617,6.422,3.781,8.427
		s4.992,3.007,8.486,3.007c3.891,0,6.889-1.399,8.993-4.198c2.104-2.799,3.156-6.76,3.156-11.881c0-4.923-1.212-8.695-3.633-11.315
		c-2.422-2.621-5.856-3.931-10.303-3.931c-4.09,0-7.405,1.072-9.945,3.216l-1.668,1.548L658.709,119.593z"/>
	<path d="M782.642,98.571c0,4.208-1.053,7.941-3.156,11.196c-2.104,3.256-5.003,5.857-8.695,7.802
		c4.208,2.025,7.543,4.815,10.006,8.368c2.461,3.553,3.692,7.733,3.692,12.536c0,7.703-2.621,13.787-7.861,18.254
		c-5.241,4.467-12.368,6.7-21.381,6.7s-16.159-2.243-21.439-6.729s-7.921-10.562-7.921-18.225c0-4.803,1.23-8.992,3.692-12.565
		s5.777-6.352,9.946-8.338c-3.692-1.945-6.581-4.545-8.665-7.802c-2.085-3.255-3.127-6.987-3.127-11.196
		c0-7.385,2.461-13.271,7.385-17.658c4.923-4.387,11.613-6.581,20.07-6.581c8.416,0,15.097,2.174,20.04,6.521
		C780.17,85.201,782.642,91.107,782.642,98.571z M767.217,137.222c0-3.771-1.092-6.789-3.275-9.053
		c-2.184-2.263-5.121-3.395-8.813-3.395c-3.653,0-6.572,1.123-8.755,3.365c-2.184,2.243-3.275,5.271-3.275,9.082
		c0,3.692,1.072,6.67,3.216,8.933c2.144,2.264,5.122,3.395,8.933,3.395c3.732,0,6.66-1.091,8.785-3.275
		C766.154,144.091,767.217,141.073,767.217,137.222z M765.431,99.404c0-3.374-0.894-6.084-2.681-8.129
		c-1.786-2.044-4.308-3.067-7.563-3.067c-3.217,0-5.718,0.993-7.504,2.978c-1.787,1.985-2.681,4.725-2.681,8.218
		c0,3.454,0.894,6.234,2.681,8.338c1.786,2.104,4.307,3.156,7.563,3.156s5.767-1.052,7.534-3.156
		C764.547,105.638,765.431,102.858,765.431,99.404z"/>
	<path d="M873.284,139.484c0-3.374-1.191-5.965-3.573-7.771c-2.383-1.807-6.671-3.712-12.864-5.717
		c-6.193-2.004-11.098-3.98-14.71-5.926c-9.847-5.32-14.77-12.486-14.77-21.499c0-4.685,1.319-8.864,3.961-12.537
		c2.64-3.672,6.432-6.541,11.374-8.605c4.943-2.064,10.491-3.097,16.646-3.097c6.194,0,11.712,1.122,16.557,3.365
		c4.844,2.244,8.605,5.41,11.285,9.499c2.681,4.089,4.021,8.735,4.021,13.936h-17.866c0-3.97-1.251-7.057-3.752-9.261
		c-2.502-2.204-6.016-3.305-10.541-3.305c-4.368,0-7.763,0.923-10.185,2.77c-2.422,1.846-3.633,4.278-3.633,7.295
		c0,2.819,1.419,5.181,4.259,7.087c2.838,1.906,7.017,3.692,12.536,5.36c10.163,3.058,17.568,6.849,22.214,11.375
		c4.645,4.526,6.968,10.164,6.968,16.913c0,7.504-2.839,13.391-8.517,17.658c-5.678,4.269-13.32,6.402-22.929,6.402
		c-6.67,0-12.744-1.221-18.224-3.663c-5.479-2.441-9.658-5.786-12.536-10.035c-2.879-4.247-4.317-9.171-4.317-14.77h17.926
		c0,9.569,5.717,14.354,17.151,14.354c4.248,0,7.563-0.864,9.946-2.591C872.093,144.993,873.284,142.581,873.284,139.484z"/>
	<path d="M968.571,89.995H942.01v72.24h-17.866v-72.24h-26.204V75.523h70.632V89.995z"/>
	<path d="M1048.315,120.844c0,8.537-1.51,16.021-4.526,22.452c-3.018,6.432-7.336,11.396-12.953,14.889
		c-5.619,3.494-12.06,5.241-19.325,5.241c-7.187,0-13.6-1.728-19.236-5.182c-5.639-3.454-10.006-8.387-13.103-14.799
		s-4.665-13.787-4.704-22.125v-4.288c0-8.536,1.538-16.05,4.615-22.542c3.076-6.492,7.424-11.474,13.042-14.948
		c5.618-3.474,12.04-5.211,19.267-5.211c7.226,0,13.646,1.737,19.266,5.211c5.617,3.475,9.965,8.457,13.042,14.948
		c3.077,6.491,4.616,13.986,4.616,22.482V120.844z M1030.21,116.914c0-9.092-1.628-16-4.883-20.725
		c-3.256-4.725-7.901-7.087-13.936-7.087c-5.996,0-10.622,2.333-13.877,6.998c-3.256,4.666-4.903,11.504-4.942,20.517v4.228
		c0,8.854,1.627,15.723,4.883,20.606c3.256,4.883,7.94,7.325,14.056,7.325c5.994,0,10.601-2.353,13.816-7.058
		s4.844-11.563,4.883-20.576V116.914z"/>
	<path d="M1093.397,130.492h-14.233v31.742h-17.866V75.523h32.219c10.243,0,18.144,2.284,23.703,6.849
		c5.558,4.566,8.337,11.018,8.337,19.355c0,5.917-1.28,10.849-3.841,14.799c-2.561,3.951-6.442,7.097-11.643,9.439l18.76,35.435
		v0.834h-19.177L1093.397,130.492z M1079.164,116.02h14.412c4.486,0,7.96-1.141,10.422-3.424c2.462-2.283,3.692-5.429,3.692-9.439
		c0-4.089-1.161-7.305-3.483-9.648c-2.323-2.342-5.887-3.514-10.69-3.514h-14.353V116.02z"/>
	<path d="M1191.306,124.655h-34.304v23.227h40.259v14.353h-58.125V75.523h58.006v14.472h-40.14v20.666h34.304V124.655z"/>
</g>
</svg>
