<?xml version="1.0" encoding="utf-8"?>
<!-- Generator: Adobe Illustrator 16.0.0, SVG Export Plug-In . SVG Version: 6.00 Build 0)  -->
<!DOCTYPE svg PUBLIC "-//W3C//DTD SVG 1.1//EN" "http://www.w3.org/Graphics/SVG/1.1/DTD/svg11.dtd">
<svg version="1.1" id="Layer_1" xmlns="http://www.w3.org/2000/svg" xmlns:xlink="http://www.w3.org/1999/xlink" x="0px" y="0px"
	 width="251.993px" height="50px" viewBox="0 0 251.993 50" enable-background="new 0 0 251.993 50" xml:space="preserve">
<g>
	<path fill-rule="evenodd" clip-rule="evenodd" fill="#AF272E" d="M31.78,3.92c5.578-1.16,2.916,7.999-3.105,9.282
		c-3.918,0.835-3.795-2.851-2.411-5.182C27.363,6.172,29.073,4.486,31.78,3.92L31.78,3.92z M19.285,5.729
		c-0.931,1.121-2.214,1.77-3.851,3.72c-3.722,4.425-6.452,7.753-8.577,14.155c-1.867,5.63-2.349,13.393,3.347,16.832
		c1.491,0.902,4.148,1.72,6.222,1.384c0.931-1.933,5.594-16.289,1.799-17.141c-2.427-0.543-3.806,1.636-5.768,1.255
		c-0.292-1.552,1.525-3.014,2.876-4.14c2.007-1.664,6.312-4.923,8.722-5.915c1.833-0.75,4.687-0.605,5.477,1.104
		c0.594,1.282-0.813,4.358-1.278,5.668c-1.805,5.07-4.154,12.28-4.653,17.527c2.842-0.807,8.459-4.693,10.46-6.782
		c0.942-0.98,1.984-2.022,2.966-2.969c2.421-2.342,5.611-7.16,7.074-10.509c0.432-0.975,1.211-3.551,1.631-4.234
		c0.863-2.19,0.163-7.506-1.183-10.156c-0.662-1.305-1.654-2.47-2.803-3.327C33.563-3.917,19.946,4.537,19.285,5.729L19.285,5.729z"
		/>
	<path fill-rule="evenodd" clip-rule="evenodd" fill="#0D4A7D" d="M161.224,45.45c0.274-1.171,0.566-2.252,0.902-3.439l0.875-3.479
		c1.8,0,7.77-0.157,9.255,0.246c2.92,0.79,1.912,3.972,0.499,5.351C170.659,46.167,164.526,45.45,161.224,45.45L161.224,45.45z
		 M164.19,34.388c0.219-0.465,1.53-5.305,1.581-5.932c2.977,0,10.481-0.829,10.481,2.173c0,1.322-0.588,1.972-1.328,2.627
		c-0.746,0.656-1.693,0.857-2.897,1.054C170.2,34.606,166.252,34.388,164.19,34.388L164.19,34.388z M154.699,49.602
		c4.939,0,12.384,0.392,16.778-0.229c6.794-0.953,10.073-7.009,8.279-10.582c-0.656-1.3-1.614-1.826-3.037-2.303l-0.73-0.263
		c-0.027-0.012-0.088-0.034-0.133-0.062c1.691-0.04,3.485-1.204,4.405-2.117c2.494-2.476,3.548-7.596-0.813-8.979
		c-2.113-0.672-15.393-0.364-18.224-0.364l-4.877,18.647c-0.313,1.081-0.561,2.135-0.818,3.132
		C155.249,47.579,154.952,48.503,154.699,49.602L154.699,49.602z"/>
	<path fill-rule="evenodd" clip-rule="evenodd" fill="#0D4A7D" d="M104.073,40.907c0,11.68,18.012,9.231,22.782,6.363
		c2.488-1.501,5.022-4.083,5.695-6.957h-8.706c-1.132,4.862-11.071,6.347-11.071-0.196c0-4.57,3.117-10.474,9.098-10.474
		c1.934,0,3.172,0.694,3.436,2.492c0.14,0.958-0.336,0.902,0.51,1.059c1.295,0.241,6.424,0.006,8.117,0.006
		c0.19-2.353,0.807-5.12-2.831-7.053c-3.134-1.664-6.127-1.445-9.631-1.445c-6.889,0-12.859,3.854-15.623,9.484
		C105.093,35.715,104.073,38.649,104.073,40.907L104.073,40.907z"/>
	<path fill-rule="evenodd" clip-rule="evenodd" fill="#0D4A7D" d="M60.364,40.907c0,10.828,15.938,9.854,22.811,6.392
		c1.256-0.633,2.657-1.775,3.464-2.862c0.88-1.177,1.827-2.498,2.203-4.123h-8.503c-1.744,3.288-3.47,4.151-7.12,4.151
		c-2.242,0-4.154-1.625-4.154-4.151c0-2.936,1.171-5.668,2.483-7.398c3.33-4.397,9.978-4.084,9.978-0.902V33.2h8.7
		c0-1.484,1.121-4.868-2.702-6.985c-3.128-1.726-6.234-1.513-9.754-1.513C68.224,24.702,60.364,32.461,60.364,40.907L60.364,40.907z
		"/>
	<path fill-rule="evenodd" clip-rule="evenodd" fill="#FFFFFF" d="M16.426,41.82c-0.454,1.417-1.418,3.501-2.147,4.616
		c-1.06,1.607-1.637,2.392-3.554,3.081c1.25,1.131,7.428-0.622,8.818-1.183c1.463-0.588,5.673-2.789,6.609-3.814
		c-1.402,0.045-1.906,0.112-2.321-1.098c-0.354-1.025-0.286-2.146-0.23-3.244c0.499-5.247,2.848-12.457,4.653-17.527
		c0.465-1.311,1.873-4.386,1.278-5.668c-0.791-1.708-3.644-1.854-5.477-1.104c-2.411,0.992-6.715,4.251-8.722,5.915
		c-1.351,1.126-3.167,2.588-2.876,4.14c1.962,0.381,3.341-1.798,5.768-1.255C22.021,25.531,17.357,39.888,16.426,41.82L16.426,41.82
		z"/>
	<path fill-rule="evenodd" clip-rule="evenodd" fill="#0D4A7D" d="M228.068,49.602h5.141c0.325-1.4,2.349-8.129,2.371-9.288
		c0.51,0.375,4.451,6.033,5.028,6.834c0.595,0.818,1.25,1.613,1.699,2.454h7.118c-1.839-2.745-5.813-7.243-7.713-10.078
		c0.622-0.168,4.528-3.12,5.14-3.557l5.141-3.752c-1.85,0-3.7-0.018-5.549-0.018c-1.307,0-1.229,0.219-2.002,0.762
		c-0.645,0.454-1.098,0.808-1.709,1.261l-4.832,3.467c-0.572,0.426-1.188,0.885-1.727,1.243l1.821-7.074
		c0.28-1.148,0.645-2.369,0.947-3.596c0.196-0.796,0.701-2.953,0.987-3.558h-5.141c-0.298,0.622-0.611,2.235-0.858,3.093
		c-1.463,5.014-2.713,10.469-4.17,15.6L228.068,49.602z"/>
	<path fill-rule="evenodd" clip-rule="evenodd" fill="#0D4A7D" d="M189.702,46.834c-1.077,0-3.364,0.118-3.364-1.58
		c0-4.447,5.998-3.557,9.491-3.557c-0.605,1.266-0.466,2.072-2.019,3.513C192.897,46.056,191.4,46.834,189.702,46.834
		L189.702,46.834z M184.561,36.952h5.141c0.426-1.825,2.5-2.307,4.468-2.233c2.987,0.111,2.999,1.478,2.455,3.813
		c-5.668,0-10.764-0.096-13.757,2.661c-2.949,2.711-3.179,8.806,3.47,8.806c4.003,0,4.956-0.594,7.91-2.571
		c0,1.003-0.196,1.075-0.196,2.174c5.842,0,4.944,0.358,5.27-1.255c0.135-0.655,0.202-0.941,0.354-1.625
		c1.193-5.495,4.81-12.093-0.163-14.232c-0.773-0.337-1.939-0.616-2.893-0.667c-3.15-0.168-5.858-0.106-8.7,1.372
		C186.568,33.895,184.936,35.328,184.561,36.952L184.561,36.952z"/>
	<path fill-rule="evenodd" clip-rule="evenodd" fill="#EE6323" d="M10.725,49.518c1.917-0.689,2.495-1.474,3.554-3.081
		c0.729-1.115,1.693-3.199,2.147-4.616c-2.074,0.336-4.731-0.481-6.222-1.384C4.508,36.997,4.99,29.234,6.857,23.604
		c2.125-6.402,4.854-9.73,8.577-14.155c1.637-1.95,2.92-2.599,3.851-3.72c-1.811,0.432-8.296,7.047-9.659,8.778
		c-0.723,0.918-1.295,1.619-1.979,2.571c-4.513,6.268-9.171,16.054-7.17,24.187c0.566,2.297,1.749,4.543,3.437,5.854
		C5.635,48.453,8.264,49.932,10.725,49.518L10.725,49.518z"/>
	<path fill-rule="evenodd" clip-rule="evenodd" fill="#0D4A7D" d="M98.136,49.602c0.062-0.712,0.583-2.387,0.791-3.165
		c0.751-2.829,5.735-20.378,5.735-21.93h-8.504l-4.232,15.919c-0.774,2.723-1.346,5.271-2.147,7.96
		c-0.437,1.468-0.706,1.216,3.218,1.216C94.711,49.602,96.427,49.602,98.136,49.602L98.136,49.602z"/>
	<path fill-rule="evenodd" clip-rule="evenodd" fill="#0D4A7D" d="M133.34,49.602c9.788,0,8.269,0.772,9.132-2.729
		c1.531-6.167,3.555-12.894,5.068-19.051c0.258-1.047,0.745-2.325,0.829-3.316h-8.504c-0.358,0.745-0.634,2.089-0.908,3.047
		C138.38,29.599,133.358,48.705,133.34,49.602L133.34,49.602z"/>
	<path fill-rule="evenodd" clip-rule="evenodd" fill="#0D4A7D" d="M45.93,49.602h8.504c1.833-7.871,4.916-17.348,6.721-25.095
		h-8.504c-0.336,0.711-0.605,2.134-0.874,3.076c-0.303,1.069-0.605,2.15-0.863,3.092C50.426,32.472,45.93,48.498,45.93,49.602
		L45.93,49.602z"/>
	<path fill-rule="evenodd" clip-rule="evenodd" fill="#0D4A7D" d="M212.444,34.977c0.022-1.06,0.393-1.614,0.393-2.762h-5.141
		c-0.213,2.576-2.338,10.312-3.077,12.928c-0.27,0.946-1.06,3.657-1.076,4.459h5.146c0.331-1.439,0.757-3.009,1.16-4.369
		c0.449-1.507,1.245-5.177,1.957-6.348c0.309-0.504,0.763-1.21,1.177-1.591c2.366-2.161,9.912-4.525,7.849,3.496
		c-0.393,1.54-2.236,7.842-2.259,8.812h5.146c0.617-2.649,3.162-10.856,3.162-12.845c0-5.725-7.708-5.747-11.01-4.089
		C213.391,33.912,213.801,34.068,212.444,34.977L212.444,34.977z"/>
	<path fill-rule="evenodd" clip-rule="evenodd" fill="#EE6323" d="M23.602,40.179c-0.056,1.099-0.124,2.219,0.23,3.244
		c0.415,1.21,0.919,1.143,2.321,1.098l3.425-2.565c3.554-2.986,3.178-2.913,6.122-5.938l2.041-2.503
		c3.117-4.156,7.994-12.906,7.994-17.83c-0.42,0.683-1.2,3.26-1.631,4.234c-1.463,3.35-4.653,8.167-7.074,10.509
		c-0.981,0.946-2.024,1.988-2.966,2.969C32.061,35.485,26.444,39.372,23.602,40.179L23.602,40.179z"/>
	<path fill-rule="evenodd" clip-rule="evenodd" fill="#FFFFFF" d="M31.78,3.92c-2.708,0.565-4.417,2.252-5.516,4.1
		c-1.385,2.331-1.508,6.017,2.411,5.182C34.696,11.919,37.358,2.761,31.78,3.92L31.78,3.92z"/>
</g>
</svg>
