<?xml version="1.0" encoding="utf-8"?>
<!-- Generator: Adobe Illustrator 16.0.0, SVG Export Plug-In . SVG Version: 6.00 Build 0)  -->
<!DOCTYPE svg PUBLIC "-//W3C//DTD SVG 1.1//EN" "http://www.w3.org/Graphics/SVG/1.1/DTD/svg11.dtd">
<svg version="1.1" id="Layer_1" xmlns="http://www.w3.org/2000/svg" xmlns:xlink="http://www.w3.org/1999/xlink" x="0px" y="0px"
	 width="1200px" height="296.028px" viewBox="0 0 1200 296.028" enable-background="new 0 0 1200 296.028" xml:space="preserve">
<g>
	<g>
		<path fill-rule="evenodd" clip-rule="evenodd" fill="#00A49B" d="M0,142.708c0,31.407,1.804,44.306,16.719,71.998
			c25.968,48.256,90.862,81.322,149.1,81.322c19.412,0,29.068-0.21,48.099-6.052c21.039-6.45,37.529-16.055,54.223-28.439
			l11.155-9.511c16.16-19.162,0.813-38.418-20.251-38.418c-11.206,0-24.266,14.254-39.816,22.737
			c-39.893,21.732-96.605,17.363-130.729-11.825c-6.327-5.421-7.216-5.515-13.34-12.454C39.917,172.2,42.535,113.754,81.792,77.791
			c2.439-2.244,4.218-3.996,6.708-6.216c15.271-13.577,45.711-25.332,68.351-25.332c23.707,0,42.788,2.851,61.134,13.04
			c7.038,3.902,13.009,7.291,18.879,12.315c1.906,1.636,2.541,1.799,4.447,3.318c22.74,18.344,44.618,0,44.618-12.993
			c0-14.185-6.276-17.994-18.549-27.458c-16.948-13.11-22.996-15.399-40.299-23.111C189.958-5.214,129.611-2.854,94.09,13.271
			C57.322,29.955,34.074,50.379,15.525,84.427C8.232,97.794,0,123.102,0,142.708L0,142.708z"/>
		<path fill-rule="evenodd" clip-rule="evenodd" fill="#139749" d="M79.759,146.821c0,21.242,8.69,38.044,23.529,51.738
			c22.207,20.47,59.432,28.369,88.551,15.049c28.255-12.899,47.489-35.591,47.489-65.946c0-10.025-3.43-23.205-7.166-29.678
			c-4.141,1.004-31.151,27.387-34.733,30.706c-5.921,5.422-11.156,10.236-17.05,15.657c-4.219,3.88-13.925,13.811-19.947,13.811
			c-7.673,0-10.494-5.141-14.559-8.856l-25.104-22.27c-5.818-5.352-9.63-7.198-9.63-15.867c0-8.063,7.267-14.021,16.135-14.021
			c8.665,0,12.07,6.356,17.558,10.235c3.278,2.337,12.678,10.89,14.711,13.67c5.26-3.224,50.946-45.124,52.876-47.812
			c-9.299-5.725-9.731-7.852-22.258-12.502c-26.4-9.745-52.673-6.8-76.329,7.548l-19.488,17.55
			C86.162,116.349,79.759,132.309,79.759,146.821L79.759,146.821z"/>
	</g>
	<g>
		<path fill-rule="evenodd" clip-rule="evenodd" fill="#00A49B" d="M737.662,85.477v124.961c0,8.167,11.606,5.215,33.966,5.215
			v-53.82h66.065v53.82c22.359,0,33.965,2.952,33.965-5.215V85.477c0-8.116-11.605-5.215-33.965-5.215v55.544h-66.065V80.262
			C749.269,80.262,737.662,77.361,737.662,85.477L737.662,85.477z"/>
		<path fill-rule="evenodd" clip-rule="evenodd" fill="#00A49B" d="M509.354,114.996c5.562,3.788,21.236,43.146,22.626,48.606
			h-43.383C491.647,158.24,508.817,120.752,509.354,114.996L509.354,114.996z M431.948,215.653h33.969
			c1.498-5.855,8.398-20.959,11.342-26.025h67.935c8.347,33.011,13.694,26.025,45.309,26.025
			c-0.213-8.315-10.323-26.764-14.442-35.275l-39.745-84.961c-8.505-18.4-5.51-15.154-36.43-15.154
			c-8.453,0-13.213,18.399-19.471,30.699c-6.151,12.004-10.752,22.73-17.013,34.685C456.77,158.436,432.644,208.027,431.948,215.653
			L431.948,215.653z"/>
		<path fill-rule="evenodd" clip-rule="evenodd" fill="#00A49B" d="M601.79,118.489c0,20.711,14.603,30.895,32.309,36.208
			c26.158,7.873,45.095,7.823,45.095,24.501c0,4.28-3.048,6.002-6.901,7.577c-26.372,10.675-57.076-14.168-66.706-16.236
			c-3.851,6.642-11.125,16.974-11.34,26.025c6.366,1.575,5.348,3.001,11.93,6.396c29.848,15.349,83.075,21.104,102.922-6.643
			c9.948-14.021,10.108-33.65-2.943-45.408c-12.09-10.971-28.031-13.382-45.629-18.744c-43.008-13.135-20.702-42.113,41.295-11.955
			l13.856-25.729c-27.925-13.579-33.541-14.219-64.78-14.219C626.77,80.262,601.79,96.744,601.79,118.489L601.79,118.489z"/>
		<path fill-rule="evenodd" clip-rule="evenodd" fill="#00A49B" d="M294.204,142.743c0,23.318,2.782,36.849,21.184,53.428
			c34.021,30.747,94.841,22.435,114.689-4.821l-19.26-18.694c-15.938,9.592-41.402,27.255-68.951,4.377
			c-26.371-21.94-10.752-68.972,25.944-68.972c35.519,0,28.512,11.512,45.31,15.596c1.872-6.545,10.001-11.218,16.958-20.811
			c-9.844-13.53-38.193-22.583-60.394-22.583C330.847,80.262,294.204,107.862,294.204,142.743L294.204,142.743z"/>
		<path fill-rule="evenodd" clip-rule="evenodd" fill="#00A49B" d="M941.471,213.931h32.094v-48.607h58.522v-29.517h-58.522v-24.305
			h66.063c0-20.563,3.212-31.24-5.669-31.24h-92.488V213.931z"/>
		<path fill-rule="evenodd" clip-rule="evenodd" fill="#00A49B" d="M1107.565,165.324v48.607h33.967
			c0-61.397-7.488-40.048,29.423-90.965c6.046-8.314,27.176-35.224,29.045-42.704h-37.711c-5.563,7.676-32.951,47.132-37.767,50.329
			c-4.814-3.248-14.816-18.744-18.831-24.255c-6.31-8.707-12.571-17.366-18.881-26.074h-37.765
			C1050.112,91.825,1107.565,156.322,1107.565,165.324L1107.565,165.324z"/>
		<rect x="890.543" y="80.262" fill-rule="evenodd" clip-rule="evenodd" fill="#00A49B" width="32.096" height="133.669"/>
	</g>
</g>
</svg>
